<?xml version="1.0" encoding="UTF-8" standalone="no"?>
<!-- Created with Inkscape (http://www.inkscape.org/) -->

<svg
   width="300"
   height="300"
   viewBox="0 0 79.374998 79.375002"
   version="1.1"
   id="svg5"
   sodipodi:docname="flywheel.svg"
   inkscape:version="1.1 (c4e8f9ed74, 2021-05-24)"
   xmlns:inkscape="http://www.inkscape.org/namespaces/inkscape"
   xmlns:sodipodi="http://sodipodi.sourceforge.net/DTD/sodipodi-0.dtd"
   xmlns="http://www.w3.org/2000/svg"
   xmlns:svg="http://www.w3.org/2000/svg">
  <sodipodi:namedview
     id="namedview7"
     pagecolor="#949494"
     bordercolor="#ffffff"
     borderopacity="1"
     inkscape:pageshadow="0"
     inkscape:pageopacity="0"
     inkscape:pagecheckerboard="1"
     inkscape:document-units="px"
     showgrid="false"
     units="px"
     width="300px"
     inkscape:zoom="1.5954864"
     inkscape:cx="199.62564"
     inkscape:cy="168.60062"
     inkscape:window-width="1920"
     inkscape:window-height="1011"
     inkscape:window-x="0"
     inkscape:window-y="0"
     inkscape:window-maximized="1"
     inkscape:current-layer="layer1" />
  <defs
     id="defs2" />
  <g
     inkscape:label="Layer 1"
     inkscape:groupmode="layer"
     id="layer1">
    <path
       id="path31"
       style="fill:#000000;fill-opacity:1;stroke:none;stroke-width:0.5295"
       d="M 39.6875,-0.050126 A 39.6875,39.737498 0 0 0 8.7499996e-7,39.687499 39.6875,39.737498 0 0 0 39.6875,79.425126 39.6875,39.737498 0 0 0 79.374999,39.687499 39.6875,39.737498 0 0 0 39.6875,-0.050126 Z M 36.187454,7.5587117 V 32.204236 a 8.2580098,8.2684124 2.0860881 0 0 -3.975468,3.98322 H 7.6703334 A 32.30672,32.347418 2.0860881 0 1 36.187454,7.5587117 Z m 7.000092,0.070797 A 32.30672,32.347418 2.0860881 0 1 71.775981,36.187456 H 47.168697 A 8.2580098,8.2684124 2.0860881 0 0 43.187546,32.198552 Z M 39.847181,35.298104 a 4.3868112,4.3923373 2.0860881 0 1 4.224031,4.549076 4.3868112,4.3923373 2.0860881 0 1 -4.543393,4.229717 4.3868112,4.3923373 2.0860881 0 1 -4.224031,-4.549077 4.3868112,4.3923373 2.0860881 0 1 4.543393,-4.229716 z M 7.59902,43.187545 h 24.61245 a 8.2580098,8.2684124 2.0860881 0 0 3.975984,3.983736 V 71.744973 A 32.30672,32.347418 2.0860881 0 1 7.59902,43.187545 Z m 39.563994,0 H 71.793549 A 32.30672,32.347418 2.0860881 0 1 43.187546,71.833342 V 47.170246 a 8.2580098,8.2684124 2.0860881 0 0 3.975468,-3.982701 z" />
  </g>
</svg>
