<svg width="300" height="300" viewBox="0 0 79.375 79.375" xmlns="http://www.w3.org/2000/svg"><path style="fill:#000;fill-opacity:1;stroke:none;stroke-width:.5295" d="M39.688-.05A39.688 39.737 0 0 0 0 39.687a39.688 39.737 0 0 0 39.688 39.738 39.688 39.737 0 0 0 39.687-39.738A39.688 39.737 0 0 0 39.687-.05zm-3.5 7.609v24.645a8.258 8.268 2.086 0 0-3.976 3.983H7.67A32.307 32.347 2.086 0 1 36.187 7.56zm7 .07a32.307 32.347 2.086 0 1 28.588 28.558H47.169a8.258 8.268 2.086 0 0-3.981-3.988zm-3.34 27.67a4.387 4.392 2.086 0 1 4.223 4.548 4.387 4.392 2.086 0 1-4.543 4.23 4.387 4.392 2.086 0 1-4.224-4.55 4.387 4.392 2.086 0 1 4.543-4.229zm-32.25 7.888H32.21a8.258 8.268 2.086 0 0 3.976 3.983v24.574A32.307 32.347 2.086 0 1 7.6 43.188zm39.564 0h24.63a32.307 32.347 2.086 0 1-28.605 28.645V47.17a8.258 8.268 2.086 0 0 3.975-3.982z"/></svg>