<svg width="300" height="300" viewBox="0 0 79.375 79.375" xmlns="http://www.w3.org/2000/svg"><path style="fill:#000;fill-opacity:1;stroke:none;stroke-width:2.00126" d="M150 0A150 150.189 0 0 0 0 150.19a150 150.189 0 0 0 150 150.189 150 150.189 0 0 0 150-150.19A150 150.189 0 0 0 150 0zm-13.229 28.758v93.148a31.211 31.25 2.086 0 0-15.025 15.055H28.99A122.104 122.258 2.086 0 1 136.771 28.758zm26.458.267a122.104 122.258 2.086 0 1 108.05 107.936h-93.004a31.211 31.25 2.086 0 0-15.046-15.076v-92.86zM150.604 133.6a16.58 16.601 2.086 0 1 15.964 17.193 16.58 16.601 2.086 0 1-17.172 15.986 16.58 16.601 2.086 0 1-15.964-17.193 16.58 16.601 2.086 0 1 17.172-15.986zM28.72 163.418h93.023a31.211 31.25 2.086 0 0 15.027 15.057v92.877A122.104 122.258 2.086 0 1 28.72 163.418zm149.533 0h93.092a122.104 122.258 2.086 0 1-108.117 108.268V178.47a31.211 31.25 2.086 0 0 15.025-15.053z" transform="scale(.26458)"/></svg>